# xmcd CD Database Entry
#
# Track frame offsets:
# 150
# 15067
# 30477
# 44882
# 59809
# 73466
# 83888
# 94389
# 113016
# 125866
# 141596
# 155233
# 176169
# 190357
#
# Disc length: 2919 seconds
#
# Revision: 0
# Processed by: cddbd v1.4PL0 Copyright (c) Steve Scherf et al.
# Submitted via: tcd 2.0b
#
DISCID=dd0b650e
DTITLE=Improbabillies - Improbabillies
DYEAR=1900
DGENRE=
TTITLE0=Salt River
TTITLE1=Four Cent Cotton
TTITLE2=Icy Mountain
TTITLE3=Piney Ridge
TTITLE4=Cumberland Gap
TTITLE5=Cotton-Eyed Joe
TTITLE6=Horseshoe Bend
TTITLE7=Speed the Plow
TTITLE8=Black-Eyed Susie
TTITLE9=Joke on the Puppy
TTITLE10=Yew Piney Mountain
TTITLE11=Goin' Away Baby
TTITLE12=Sandy Boys
TTITLE13=Bye-Bye Bird
EXTD=
EXTT0=
EXTT1=
EXTT2=
EXTT3=
EXTT4=
EXTT5=
EXTT6=
EXTT7=
EXTT8=
EXTT9=
EXTT10=
EXTT11=
EXTT12=
EXTT13=
PLAYORDER=
